<svg width="33" height="32" viewBox="0 0 33 32" fill="none" xmlns="http://www.w3.org/2000/svg">
<path d="M20.8213 4.96133L21.212 7.66667H26.5C26.7652 7.66667 27.0196 7.77202 27.2071 7.95956C27.3946 8.1471 27.5 8.40145 27.5 8.66667C27.5 8.93188 27.3946 9.18624 27.2071 9.37377C27.0196 9.56131 26.7652 9.66667 26.5 9.66667H25.4747L24.3107 23.2467C24.24 24.0733 24.1827 24.7533 24.0907 25.3027C23.9973 25.8747 23.8547 26.3867 23.576 26.8613C23.1384 27.6068 22.4879 28.2045 21.708 28.5773C21.212 28.8133 20.6893 28.9107 20.1107 28.956C19.5547 29 18.8733 29 18.044 29H14.956C14.1267 29 13.4453 29 12.8893 28.956C12.3107 28.9107 11.788 28.8133 11.292 28.5773C10.5121 28.2045 9.86157 27.6068 9.424 26.8613C9.144 26.3867 9.004 25.8747 8.90933 25.3027C8.81733 24.752 8.76 24.0733 8.68933 23.2467L7.52533 9.66667H6.5C6.23478 9.66667 5.98043 9.56131 5.79289 9.37377C5.60536 9.18624 5.5 8.93188 5.5 8.66667C5.5 8.40145 5.60536 8.1471 5.79289 7.95956C5.98043 7.77202 6.23478 7.66667 6.5 7.66667H11.788L12.1787 4.96133L12.1933 4.88C12.436 3.82667 13.34 3 14.4733 3H18.5267C19.66 3 20.564 3.82667 20.8067 4.88L20.8213 4.96133ZM13.808 7.66667H19.1907L18.8493 5.29867C18.7853 5.076 18.6227 5 18.5253 5H14.4747C14.3773 5 14.2147 5.076 14.1507 5.29867L13.808 7.66667ZM15.5 14C15.5 13.7348 15.3946 13.4804 15.2071 13.2929C15.0196 13.1054 14.7652 13 14.5 13C14.2348 13 13.9804 13.1054 13.7929 13.2929C13.6054 13.4804 13.5 13.7348 13.5 14V20.6667C13.5 20.9319 13.6054 21.1862 13.7929 21.3738C13.9804 21.5613 14.2348 21.6667 14.5 21.6667C14.7652 21.6667 15.0196 21.5613 15.2071 21.3738C15.3946 21.1862 15.5 20.9319 15.5 20.6667V14ZM19.5 14C19.5 13.7348 19.3946 13.4804 19.2071 13.2929C19.0196 13.1054 18.7652 13 18.5 13C18.2348 13 17.9804 13.1054 17.7929 13.2929C17.6054 13.4804 17.5 13.7348 17.5 14V20.6667C17.5 20.9319 17.6054 21.1862 17.7929 21.3738C17.9804 21.5613 18.2348 21.6667 18.5 21.6667C18.7652 21.6667 19.0196 21.5613 19.2071 21.3738C19.3946 21.1862 19.5 20.9319 19.5 20.6667V14Z" fill="#BE4741"/>
</svg>
