<svg width="45" height="44" viewBox="0 0 45 44" fill="none" xmlns="http://www.w3.org/2000/svg">
<rect x="0.5" width="44" height="44" rx="8" fill="#EDEDFA"/>
<path d="M29.91 17.41L25.08 12.58C24.71 12.21 24.2 12 23.67 12H16.5C15.4 12 14.51 12.9 14.51 14L14.5 30C14.5 31.1 15.39 32 16.49 32H28.5C29.6 32 30.5 31.1 30.5 30V18.83C30.5 18.3 30.29 17.79 29.91 17.41ZM25.3 25H23.5V28C23.5 28.55 23.05 29 22.5 29C21.95 29 21.5 28.55 21.5 28V25H19.71C19.26 25 19.04 24.46 19.36 24.15L22.16 21.36C22.36 21.17 22.67 21.17 22.87 21.36L25.66 24.15C25.96 24.46 25.74 25 25.3 25ZM24.5 19C23.95 19 23.5 18.55 23.5 18V13.5L29 19H24.5Z" fill="#464EC9"/>
</svg>
