<svg width="48" height="48" viewBox="0 0 48 48" fill="none" xmlns="http://www.w3.org/2000/svg">
<rect width="48" height="48" rx="12" fill="#d14b45"/>
<path d="M15.2695 24.7945V23.5132C15.2695 19.9376 16.1336 17.2807 17.8618 15.5425C19.6 13.7944 21.8645 12.9204 24.6555 12.9204C27.3075 12.9204 29.3982 13.5958 30.9278 14.9466C32.4574 16.2875 33.2222 18.12 33.2222 20.4441V21.1742H28.4696V20.2207C28.4696 19.0189 28.1517 18.1001 27.5161 17.4644C26.8903 16.8188 25.9368 16.496 24.6555 16.496C23.3345 16.496 22.2817 16.9778 21.497 17.9412C20.7124 18.8947 20.3201 20.459 20.3201 22.6342V25.6884C20.3201 27.7544 20.7074 29.2988 21.4822 30.3219C22.2668 31.335 23.3445 31.8415 24.7151 31.8415C25.9368 31.8415 26.8556 31.5038 27.4714 30.8284C28.0872 30.153 28.4149 29.1896 28.4547 27.9381L28.4696 27.1783H33.2222L33.2073 28.0275C33.1477 30.2225 32.373 32.0004 30.8831 33.3612C29.3933 34.712 27.3124 35.3874 24.6406 35.3874C21.8 35.3874 19.5255 34.5083 17.8171 32.7503C16.1187 30.9824 15.2695 28.3304 15.2695 24.7945Z" fill="white" fill-opacity="0.8"/>
</svg>
