<svg viewBox="0 0 14 14" fill="none" xmlns="http://www.w3.org/2000/svg">
<path d="M13.0001 13L10.1048 10.1047M10.1048 10.1047C10.6001 9.60941 10.9929 9.02145 11.261 8.37436C11.529 7.72728 11.6669 7.03373 11.6669 6.33333C11.6669 5.63293 11.529 4.93939 11.261 4.2923C10.9929 3.64522 10.6001 3.05726 10.1048 2.562C9.60955 2.06674 9.02159 1.67388 8.3745 1.40585C7.72742 1.13782 7.03387 0.999863 6.33347 0.999863C5.63307 0.999863 4.93953 1.13782 4.29244 1.40585C3.64535 1.67388 3.0574 2.06674 2.56214 2.562C1.56192 3.56222 1 4.91881 1 6.33333C1 7.74786 1.56192 9.10445 2.56214 10.1047C3.56236 11.1049 4.91895 11.6668 6.33347 11.6668C7.748 11.6668 9.10458 11.1049 10.1048 10.1047Z" stroke="#98A2B3" stroke-width="1.5" stroke-linecap="round" stroke-linejoin="round"/>
</svg>
