<svg width="20" height="20" viewBox="0 0 20 20" fill="none" xmlns="http://www.w3.org/2000/svg">
<path d="M16.175 6.175L12.15 2.15C11.8417 1.84167 11.4167 1.66667 10.975 1.66667H5.00004C4.08337 1.66667 3.34171 2.41667 3.34171 3.33333L3.33337 16.6667C3.33337 17.5833 4.07504 18.3333 4.99171 18.3333H15C15.9167 18.3333 16.6667 17.5833 16.6667 16.6667V7.35833C16.6667 6.91667 16.4917 6.49167 16.175 6.175ZM12.3334 12.5H10.8334V15C10.8334 15.4583 10.4584 15.8333 10 15.8333C9.54171 15.8333 9.16671 15.4583 9.16671 15V12.5H7.67504C7.30004 12.5 7.11671 12.05 7.38337 11.7917L9.71671 9.46667C9.88337 9.30833 10.1417 9.30833 10.3084 9.46667L12.6334 11.7917C12.8834 12.05 12.7 12.5 12.3334 12.5ZM11.6667 7.5C11.2084 7.5 10.8334 7.125 10.8334 6.66667V2.91667L15.4167 7.5H11.6667Z" fill="currentColor"/>
</svg>
