<svg width="80" height="80" viewBox="0 0 1758 1654" fill="none" xmlns="http://www.w3.org/2000/svg">
<path d="M0 406.131C0 181.831 181.831 0 406.131 0H1757.73V1247.63C1757.73 1471.93 1575.9 1653.76 1351.6 1653.76H0V406.131Z" fill="white"/>
<path d="M370.653 372.761C342.841 400.053 308.661 413.699 268.113 413.699C227.565 413.699 193.255 400.053 165.184 372.761C137.372 345.209 123.466 311.289 123.466 271.001C123.466 230.713 137.372 196.923 165.184 169.631C193.255 142.079 227.565 128.303 268.113 128.303C308.661 128.303 342.841 142.079 370.653 169.631C398.725 196.923 412.761 230.713 412.761 271.001C412.761 311.289 398.725 345.209 370.653 372.761ZM220.157 318.567C232.894 331.043 248.879 337.282 268.113 337.282C287.348 337.282 303.203 331.043 315.679 318.567C328.416 305.831 334.784 289.975 334.784 271.001C334.784 252.027 328.416 236.301 315.679 223.825C303.203 211.089 287.348 204.721 268.113 204.721C248.879 204.721 232.894 211.089 220.157 223.825C207.681 236.301 201.443 252.027 201.443 271.001C201.443 289.975 207.681 305.831 220.157 318.567ZM586.257 134.541H664.234V407.461H601.852L516.077 282.698V407.461H438.1V134.541H500.482L586.257 259.305V134.541ZM777.179 335.722H878.549V407.461H699.202V134.541H876.599V205.5H777.179V235.132H866.852V305.311H777.179V335.722ZM242.381 488.541C270.713 488.541 294.366 497.509 313.34 515.443C332.314 533.118 341.802 556.771 341.802 586.402C341.802 616.034 332.314 639.817 313.34 657.751C294.366 675.426 270.713 684.264 242.381 684.264H211.19V761.461H133.213V488.541H242.381ZM242.381 608.626C248.359 608.626 253.428 606.676 257.586 602.778C261.745 598.619 263.825 593.16 263.825 586.402C263.825 579.644 261.745 574.316 257.586 570.417C253.428 566.258 248.359 564.179 242.381 564.179H211.19V608.626H242.381ZM495.867 761.461L486.51 726.371H407.753L398.396 761.461H314.571L401.515 488.541H492.748L579.693 761.461H495.867ZM424.518 663.99H469.745L447.132 580.164L424.518 663.99ZM763.076 488.541V564.179H698.745V761.461H620.768V564.179H556.437V488.541H763.076ZM782.494 488.541H860.471V761.461H782.494V488.541ZM973.461 689.722H1074.83V761.461H895.484V488.541H1072.88V559.5H973.461V589.132H1063.14V659.311H973.461V689.722ZM1250.3 488.541H1328.27V761.461H1265.89L1180.12 636.698V761.461H1102.14V488.541H1164.52L1250.3 613.305V488.541ZM1554.28 488.541V564.179H1489.95V761.461H1411.98V564.179H1347.64V488.541H1554.28ZM1605.44 754.443C1596.86 763.02 1586.33 767.309 1573.85 767.309C1561.38 767.309 1550.72 763.02 1541.88 754.443C1533.31 745.606 1529.02 734.949 1529.02 722.472C1529.02 709.996 1533.31 699.469 1541.88 690.892C1550.72 682.054 1561.38 677.636 1573.85 677.636C1586.33 677.636 1596.86 682.054 1605.44 690.892C1614.27 699.469 1618.69 709.996 1618.69 722.472C1618.69 734.949 1614.27 745.606 1605.44 754.443Z" fill="#8898FF"/>
<path d="M370.653 1081.76C342.841 1109.05 308.661 1122.7 268.113 1122.7C227.565 1122.7 193.255 1109.05 165.184 1081.76C137.372 1054.21 123.466 1020.29 123.466 980.001C123.466 939.713 137.372 905.923 165.184 878.631C193.255 851.079 227.565 837.303 268.113 837.303C308.661 837.303 342.841 851.079 370.653 878.631C398.725 905.923 412.761 939.713 412.761 980.001C412.761 1020.29 398.725 1054.21 370.653 1081.76ZM220.157 1027.57C232.894 1040.04 248.879 1046.28 268.113 1046.28C287.348 1046.28 303.203 1040.04 315.679 1027.57C328.416 1014.83 334.784 998.975 334.784 980.001C334.784 961.027 328.416 945.301 315.679 932.825C303.203 920.089 287.348 913.721 268.113 913.721C248.879 913.721 232.894 920.089 220.157 932.825C207.681 945.301 201.443 961.027 201.443 980.001C201.443 998.975 207.681 1014.83 220.157 1027.57ZM586.257 843.541H664.234V1116.46H601.852L516.077 991.698V1116.46H438.1V843.541H500.482L586.257 968.305V843.541ZM777.179 1044.72H878.549V1116.46H699.202V843.541H876.599V914.5H777.179V944.132H866.852V1014.31H777.179V1044.72ZM273.962 1470.07L230.684 1384.3H211.19V1470.07H133.213V1197.15H242.381C272.272 1197.15 296.965 1205.99 316.459 1223.66C335.953 1241.08 345.701 1264.21 345.701 1293.06C345.701 1309.18 341.932 1323.73 334.394 1336.73C327.116 1349.73 316.849 1360.25 303.593 1368.31L357.397 1470.07H273.962ZM211.19 1268.89V1319.58H240.821C249.139 1319.84 255.637 1317.76 260.316 1313.34C265.254 1308.92 267.723 1302.68 267.723 1294.62C267.723 1286.57 265.254 1280.33 260.316 1275.91C255.637 1271.23 249.139 1268.89 240.821 1268.89H211.19ZM450.97 1398.72H552.34V1470.46H372.992V1197.54H550.39V1268.5H450.97V1298.13H540.643V1368.31H450.97V1398.72ZM710.694 1476.7C669.626 1476.7 635.576 1463.05 608.544 1435.76C581.512 1408.47 567.996 1374.55 567.996 1334C567.996 1293.45 581.512 1259.53 608.544 1232.24C635.576 1204.95 669.626 1191.3 710.694 1191.3C735.907 1191.3 759.17 1197.28 780.484 1209.24C801.797 1221.19 818.432 1237.31 830.389 1257.58L762.549 1296.57C758.13 1287.73 751.242 1280.72 741.885 1275.52C732.528 1270.32 722.131 1267.72 710.694 1267.72C691.46 1267.72 675.864 1273.96 663.908 1286.44C651.951 1298.91 645.973 1314.77 645.973 1334C645.973 1353.24 651.951 1369.09 663.908 1381.57C675.864 1394.04 691.46 1400.28 710.694 1400.28C722.391 1400.28 732.788 1397.68 741.885 1392.48C751.242 1387.29 758.13 1380.14 762.549 1371.04L830.389 1410.03C818.432 1430.56 801.797 1446.81 780.484 1458.76C759.17 1470.72 735.907 1476.7 710.694 1476.7ZM1075.52 1435.76C1047.71 1463.05 1013.53 1476.7 972.983 1476.7C932.435 1476.7 898.125 1463.05 870.054 1435.76C842.242 1408.21 828.336 1374.29 828.336 1334C828.336 1293.71 842.242 1259.92 870.054 1232.63C898.125 1205.08 932.435 1191.3 972.983 1191.3C1013.53 1191.3 1047.71 1205.08 1075.52 1232.63C1103.59 1259.92 1117.63 1293.71 1117.63 1334C1117.63 1374.29 1103.59 1408.21 1075.52 1435.76ZM925.027 1381.57C937.764 1394.04 953.749 1400.28 972.983 1400.28C992.218 1400.28 1008.07 1394.04 1020.55 1381.57C1033.29 1368.83 1039.65 1352.98 1039.65 1334C1039.65 1315.03 1033.29 1299.3 1020.55 1286.82C1008.07 1274.09 992.218 1267.72 972.983 1267.72C953.749 1267.72 937.764 1274.09 925.027 1286.82C912.551 1299.3 906.313 1315.03 906.313 1334C906.313 1352.98 912.551 1368.83 925.027 1381.57ZM1283.72 1470.07L1240.44 1384.3H1220.95V1470.07H1142.97V1197.15H1252.14C1282.03 1197.15 1306.72 1205.99 1326.22 1223.66C1345.71 1241.08 1355.46 1264.21 1355.46 1293.06C1355.46 1309.18 1351.69 1323.73 1344.15 1336.73C1336.87 1349.73 1326.61 1360.25 1313.35 1368.31L1367.15 1470.07H1283.72ZM1220.95 1268.89V1319.58H1250.58C1258.9 1319.84 1265.39 1317.76 1270.07 1313.34C1275.01 1308.92 1277.48 1302.68 1277.48 1294.62C1277.48 1286.57 1275.01 1280.33 1270.07 1275.91C1265.39 1271.23 1258.9 1268.89 1250.58 1268.89H1220.95ZM1495.82 1197.54C1533.51 1197.54 1564.96 1210.67 1590.17 1236.92C1615.64 1262.91 1628.38 1295.27 1628.38 1334C1628.38 1372.73 1615.64 1405.22 1590.17 1431.47C1564.96 1457.46 1533.51 1470.46 1495.82 1470.46H1382.75V1197.54H1495.82ZM1495.82 1394.82C1511.67 1394.82 1524.67 1389.23 1534.8 1378.06C1545.2 1366.62 1550.4 1351.94 1550.4 1334C1550.4 1316.07 1545.2 1301.51 1534.8 1290.33C1524.67 1278.9 1511.67 1273.18 1495.82 1273.18H1464.63V1394.82H1495.82Z" fill="#5465FC"/>
</svg>
